<?xml version="1.0" encoding="UTF-8" standalone="no"?>
<!DOCTYPE svg PUBLIC "-//W3C//DTD SVG 1.1//EN" "http://www.w3.org/Graphics/SVG/1.1/DTD/svg11.dtd">
<svg xmlns="http://www.w3.org/2000/svg" version="1.1" viewBox="0.00 0.00 78.00 304.00">
<g stroke-width="2.00" fill="none" stroke-linecap="butt">
<path stroke="#7f8181" vector-effect="non-scaling-stroke" d="
  M 60.98 29.83
  C 60.92 23.20 57.32 17.37 51.48 14.37
  Q 47.59 12.38 42.11 12.39
  Q 34.02 12.42 32.11 12.90
  Q 17.87 16.57 17.87 31.78
  Q 17.86 83.46 17.88 134.38
  Q 17.88 144.15 25.98 149.52
  C 31.02 152.86 36.52 152.53 42.18 152.53
  C 52.66 152.53 61.03 145.56 61.01 134.77
  Q 60.97 117.89 61.01 102.64
  Q 61.01 101.97 60.39 102.22
  Q 55.29 104.23 51.36 106.25
  Q 47.35 108.31 47.24 113.39
  Q 47.05 121.68 47.11 131.58
  Q 47.13 136.75 43.54 138.83
  Q 39.91 140.94 36.69 139.43
  Q 32.02 137.23 32.01 131.74
  Q 31.98 81.16 32.02 32.99
  Q 32.02 28.90 35.05 26.45
  C 38.59 23.58 43.94 24.84 46.09 28.68
  Q 47.17 30.63 47.16 33.17
  Q 47.05 47.82 47.16 62.53
  Q 47.16 63.00 47.59 62.81
  Q 52.22 60.77 57.13 58.44
  C 59.42 57.35 60.85 54.88 60.90 52.44
  Q 61.10 44.02 60.98 29.83"
/>
<path stroke="#7f8181" vector-effect="non-scaling-stroke" d="
  M 31.25 276.71
  Q 31.25 224.01 31.25 165.84
  C 31.25 163.25 29.33 161.42 26.69 161.40
  Q 22.47 161.37 18.49 161.36
  Q 17.86 161.36 17.86 161.99
  L 17.87 289.85
  A 0.52 0.52 0.0 0 0 18.39 290.37
  Q 33.88 290.40 49.92 290.35
  Q 55.27 290.33 57.41 285.59
  Q 59.09 281.84 60.77 277.69
  A 0.32 0.32 0.0 0 0 60.48 277.25
  L 31.79 277.25
  Q 31.25 277.25 31.25 276.71"
/>
</g>
<path fill="#ecf0f1" d="
  M 0.00 0.00
  L 78.00 0.00
  L 78.00 304.00
  L 0.00 304.00
  L 0.00 0.00
  Z
  M 60.98 29.83
  C 60.92 23.20 57.32 17.37 51.48 14.37
  Q 47.59 12.38 42.11 12.39
  Q 34.02 12.42 32.11 12.90
  Q 17.87 16.57 17.87 31.78
  Q 17.86 83.46 17.88 134.38
  Q 17.88 144.15 25.98 149.52
  C 31.02 152.86 36.52 152.53 42.18 152.53
  C 52.66 152.53 61.03 145.56 61.01 134.77
  Q 60.97 117.89 61.01 102.64
  Q 61.01 101.97 60.39 102.22
  Q 55.29 104.23 51.36 106.25
  Q 47.35 108.31 47.24 113.39
  Q 47.05 121.68 47.11 131.58
  Q 47.13 136.75 43.54 138.83
  Q 39.91 140.94 36.69 139.43
  Q 32.02 137.23 32.01 131.74
  Q 31.98 81.16 32.02 32.99
  Q 32.02 28.90 35.05 26.45
  C 38.59 23.58 43.94 24.84 46.09 28.68
  Q 47.17 30.63 47.16 33.17
  Q 47.05 47.82 47.16 62.53
  Q 47.16 63.00 47.59 62.81
  Q 52.22 60.77 57.13 58.44
  C 59.42 57.35 60.85 54.88 60.90 52.44
  Q 61.10 44.02 60.98 29.83
  Z
  M 31.25 276.71
  Q 31.25 224.01 31.25 165.84
  C 31.25 163.25 29.33 161.42 26.69 161.40
  Q 22.47 161.37 18.49 161.36
  Q 17.86 161.36 17.86 161.99
  L 17.87 289.85
  A 0.52 0.52 0.0 0 0 18.39 290.37
  Q 33.88 290.40 49.92 290.35
  Q 55.27 290.33 57.41 285.59
  Q 59.09 281.84 60.77 277.69
  A 0.32 0.32 0.0 0 0 60.48 277.25
  L 31.79 277.25
  Q 31.25 277.25 31.25 276.71
  Z"
/>
<path fill="#111111" d="
  M 51.48 14.37
  C 57.32 17.37 60.92 23.20 60.98 29.83
  Q 61.10 44.02 60.90 52.44
  C 60.85 54.88 59.42 57.35 57.13 58.44
  Q 52.22 60.77 47.59 62.81
  Q 47.16 63.00 47.16 62.53
  Q 47.05 47.82 47.16 33.17
  Q 47.17 30.63 46.09 28.68
  C 43.94 24.84 38.59 23.58 35.05 26.45
  Q 32.02 28.90 32.02 32.99
  Q 31.98 81.16 32.01 131.74
  Q 32.02 137.23 36.69 139.43
  Q 39.91 140.94 43.54 138.83
  Q 47.13 136.75 47.11 131.58
  Q 47.05 121.68 47.24 113.39
  Q 47.35 108.31 51.36 106.25
  Q 55.29 104.23 60.39 102.22
  Q 61.01 101.97 61.01 102.64
  Q 60.97 117.89 61.01 134.77
  C 61.03 145.56 52.66 152.53 42.18 152.53
  C 36.52 152.53 31.02 152.86 25.98 149.52
  Q 17.88 144.15 17.88 134.38
  Q 17.86 83.46 17.87 31.78
  Q 17.87 16.57 32.11 12.90
  Q 34.02 12.42 42.11 12.39
  Q 47.59 12.38 51.48 14.37
  Z"
/>
<path fill="#111111" d="
  M 31.79 277.25
  L 60.48 277.25
  A 0.32 0.32 0.0 0 1 60.77 277.69
  Q 59.09 281.84 57.41 285.59
  Q 55.27 290.33 49.92 290.35
  Q 33.88 290.40 18.39 290.37
  A 0.52 0.52 0.0 0 1 17.87 289.85
  L 17.86 161.99
  Q 17.86 161.36 18.49 161.36
  Q 22.47 161.37 26.69 161.40
  C 29.33 161.42 31.25 163.25 31.25 165.84
  Q 31.25 224.01 31.25 276.71
  Q 31.25 277.25 31.79 277.25
  Z"
/>
</svg>
