<svg xmlns="http://www.w3.org/2000/svg" version="1.1" xmlns:xlink="http://www.w3.org/1999/xlink" xmlns:svgjs="http://svgjs.dev/svgjs" width="430" height="10000" preserveAspectRatio="none" viewBox="0 0 430 10000"><g mask="url(&quot;#SvgjsMask1013&quot;)" fill="none"><path d="M108 204C74.33 204 38.57 207.94 38.57 216C38.57 224.28 75.84 236.68 108 236.68C121.12 236.68 129.13 224.97 129.13 216C129.13 208.63 119.61 204 108 204" stroke="rgba(62, 103, 172, 0.5)" stroke-width="2"></path><path d="M216 321.16C214.46 321.16 213.23 322.58 213.23 324C213.23 325.42 214.46 326.84 216 326.84C218.01 326.84 220.32 325.42 220.32 324C220.32 322.58 218.01 321.16 216 321.16" stroke="rgba(62, 103, 172, 0.5)" stroke-width="2"></path><path d="M216 527.14C209.32 527.14 208.5 533.09 208.5 540C208.5 553.02 208.98 555.03 216 567C240.66 609.03 237.69 615.01 271.86 648C291.69 667.14 297.31 671.26 324 671.26C359.38 671.26 396 670.33 396 648C396 614.23 364.43 597.88 324 559.06C308.18 543.88 304.8 546.3 283.5 540C250.8 530.34 246.82 527.14 216 527.14" stroke="rgba(62, 103, 172, 0.5)" stroke-width="2"></path><path d="M108 640.5C102.14 640.5 97.62 643.06 97.62 648C97.62 656.45 100.57 667.29 108 667.29C119.26 667.29 135 655.26 135 648C135 641.87 120.83 640.5 108 640.5" stroke="rgba(62, 103, 172, 0.5)" stroke-width="2"></path><path d="M216 1158.55C209.39 1158.55 209.52 1174.53 209.52 1188C209.52 1191.54 212.28 1192.56 216 1192.56C227.09 1192.56 239.14 1194.57 239.14 1188C239.14 1177.57 224.2 1158.55 216 1158.55" stroke="rgba(62, 103, 172, 0.5)" stroke-width="2"></path><path d="M324 1666.7C310.19 1666.7 298.8 1697.17 298.8 1728C298.8 1761.17 310.15 1794.71 324 1794.71C338.29 1794.71 355.07 1761.1 355.07 1728C355.07 1697.09 338.32 1666.7 324 1666.7" stroke="rgba(62, 103, 172, 0.5)" stroke-width="2"></path><path d="M108 2778.71C93.63 2778.71 82.59 2793.76 82.59 2808C82.59 2821.3 93.86 2833.79 108 2833.79C126.66 2833.79 148.19 2821.49 148.19 2808C148.19 2793.95 126.43 2778.71 108 2778.71" stroke="rgba(62, 103, 172, 0.5)" stroke-width="2"></path><path d="M324 3081.6C307.03 3081.6 287.42 3110.17 287.42 3132C287.42 3147.31 306.36 3155.87 324 3155.87C339.19 3155.87 353.08 3146.58 353.08 3132C353.08 3109.45 339.86 3081.6 324 3081.6" stroke="rgba(62, 103, 172, 0.5)" stroke-width="2"></path><path d="M216 4851.69C211.7 4851.69 210.31 4854.78 208.99 4860C195.59 4912.94 184.29 4916.07 186.55 4968C187.79 4996.44 194.99 5020.74 216 5020.74C248.82 5020.74 290.89 5002.58 294.21 4968C298.61 4922.21 265.72 4911 231.43 4860C226.62 4852.85 222.92 4851.69 216 4851.69" stroke="rgba(62, 103, 172, 0.5)" stroke-width="2"></path><path d="M108 5222.32C83.21 5222.32 54.45 5253.17 51.16 5292C46.92 5342.01 68.36 5348.94 92.93 5400C96.78 5408.01 100.38 5410.13 108 5410.13C116.02 5410.13 121.53 5408.75 124.2 5400C139.53 5349.69 148.72 5343.82 144 5292C140.62 5254.98 129.63 5222.32 108 5222.32" stroke="rgba(62, 103, 172, 0.5)" stroke-width="2"></path><path d="M324 5372.51C310.29 5372.51 292.5 5386.33 292.5 5400C292.5 5413.57 310.26 5427 324 5427C334.6 5427 341.18 5413.53 341.18 5400C341.18 5386.29 334.63 5372.51 324 5372.51" stroke="rgba(62, 103, 172, 0.5)" stroke-width="2"></path><path d="M324 5600.57C312.02 5600.57 305.94 5603.59 299.61 5616C274.44 5665.31 259.93 5670.36 261 5724C262.08 5778.36 283.05 5777.78 303.91 5832C314.55 5859.65 308.61 5887.74 324 5887.74C343.34 5887.74 364.56 5865.38 373.37 5832C386.16 5783.51 374.08 5777.51 367.2 5724C360.2 5669.51 363.01 5665.73 345.6 5616C341.41 5604.01 335.02 5600.57 324 5600.57" stroke="rgba(62, 103, 172, 0.5)" stroke-width="2"></path><path d="M108 6037.38C103.59 6037.38 99.58 6042.2 99.58 6048C99.58 6056.51 103.51 6066 108 6066C112.63 6066 117.82 6056.39 117.82 6048C117.82 6042.08 112.71 6037.38 108 6037.38" stroke="rgba(62, 103, 172, 0.5)" stroke-width="2"></path><path d="M324 6233.9C310.72 6233.9 297.77 6250.04 297.77 6264C297.77 6275.89 310.77 6285.6 324 6285.6C337.58 6285.6 351.4 6275.93 351.4 6264C351.4 6250.08 337.54 6233.9 324 6233.9" stroke="rgba(62, 103, 172, 0.5)" stroke-width="2"></path><path d="M324 7422.21C311.26 7422.21 313.48 7438.48 300 7452C259.48 7492.65 259.37 7492.93 216 7530.55C197.12 7546.93 175.5 7541.61 175.5 7560C175.5 7586.98 186.63 7615.23 216 7621.3C260.88 7630.57 272.24 7610.99 324 7590.68C350.35 7580.34 367.19 7583.76 372.21 7560C381.84 7514.42 370.74 7501.89 353.29 7452C346.64 7432.99 337.91 7422.21 324 7422.21" stroke="rgba(62, 103, 172, 0.5)" stroke-width="2"></path><path d="M108 7623C83.12 7623 62.24 7647.7 62.24 7668C62.24 7685.37 83.95 7698.34 108 7698.34C139.76 7698.34 173.85 7685.94 173.85 7668C173.85 7648.27 138.92 7623 108 7623" stroke="rgba(62, 103, 172, 0.5)" stroke-width="2"></path><path d="M324 7942.5C310.64 7942.5 292.74 7970.77 292.74 7992C292.74 8005.42 309.47 8011.8 324 8011.8C335 8011.8 343.8 8003.93 343.8 7992C343.8 7969.28 336.17 7942.5 324 7942.5" stroke="rgba(62, 103, 172, 0.5)" stroke-width="2"></path><path d="M324 8280C294.73 8280 264.29 8287.75 259.2 8316C251.33 8359.75 308.71 8376.4 298.08 8424C287.11 8473.15 253.91 8464.7 216 8509.5C208.21 8518.7 208.88 8520.08 206.69 8532C196.88 8585.33 190.4 8586.26 192 8640C193.62 8694.26 203.49 8693.86 213.12 8748C215.49 8761.36 214.23 8775 216 8775C217.79 8775 217.56 8761.4 220.24 8748C231.06 8693.9 217.23 8685.98 243 8640C269.11 8593.41 280.26 8596.95 324 8562.86C349.56 8542.95 379.85 8556.73 381.6 8532C384.76 8487.3 340.57 8479.88 333.82 8424C327.52 8371.88 358.92 8366.2 355.5 8316C354.01 8294.2 342.88 8280 324 8280" stroke="rgba(62, 103, 172, 0.5)" stroke-width="2"></path><path d="M324 9474.99C281.04 9474.99 231.43 9489.08 231.43 9504C231.43 9519.01 281.36 9534.86 324 9534.86C343.07 9534.86 354.86 9519.19 354.86 9504C354.86 9489.26 342.76 9474.99 324 9474.99" stroke="rgba(62, 103, 172, 0.5)" stroke-width="2"></path><path d="M342.67 9936C371.15 9877.16 406.57 9832.63 432 9832.63C451.24 9832.63 432 9884.31 432 9936C432 9990 458.27 10016.27 432 10044C407.11 10070.27 351.33 10070.17 329.68 10044C306.66 10016.17 319.99 9982.85 342.67 9936" stroke="rgba(62, 103, 172, 0.5)" stroke-width="2"></path><path d="M0 99.36C50.91 51.5 50.71 46.01 108 6.48C122.71 -3.67 125.81 1.09 144 0C179.81 -2.15 180 0 216 0C237.6 0 248.26 -14.84 259.2 0C288.05 39.16 272.57 56.58 295.58 108C304.97 128.99 310.37 125.98 324 144.82C349.44 179.98 345.7 183.11 373.71 216C399.7 246.52 414.33 238.91 432 271.64C443.48 292.91 432 297.82 432 324C432 347.35 447.15 370.7 432 370.7C394.79 370.7 379.07 348.13 327.27 324C325.07 322.98 326.02 321.74 324 320.4C270.39 284.8 266.68 288.97 216 250.11C198.6 236.77 205.39 228.92 187.83 216C151.39 189.2 149.32 190.47 108 170.67C55.4 145.47 46.79 153.15 0 126C-7.21 121.82 0 117 0 108C0 103.68 -3.09 102.26 0 99.36" stroke="rgba(62, 103, 172, 0.5)" stroke-width="2"></path><path d="M432 15.07C415.75 15.07 388.8 3.88 388.8 0C388.8 -3.66 415.99 -5.59 432 0C437.59 1.95 437.35 15.07 432 15.07" stroke="rgba(62, 103, 172, 0.5)" stroke-width="2"></path><path d="M83.79 324C91.56 306.65 94.42 294.13 108 294.13C124.52 294.13 127.15 307.82 144 324C181.15 359.7 175.32 395.45 216 397.89C265.32 400.85 288.55 325.28 324 334.8C352.08 342.34 343.06 385.1 343.06 432C343.06 449.37 340.11 459.44 324 463.35C276.58 474.87 257.87 441.88 216 462.86C181.37 480.21 198.03 504.92 171 540C144.03 574.99 141.64 574.01 108 603C78.98 628.01 70.99 620.06 45.69 648C16.99 679.69 12.34 722.25 0 722.25C-10.51 722.25 0 685.13 0 648C0 598.5 -2.22 597.93 0 549C0.23 543.93 3.03 544.76 4.91 540C26.17 486.26 26.46 486.31 46.29 432C65.9 378.31 60.7 375.59 83.79 324" stroke="rgba(62, 103, 172, 0.5)" stroke-width="2"></path><path d="M427.3 540C427.3 538.28 430.4 537.49 432 537.49C432.75 537.49 432 538.74 432 540C432 542.84 433.02 545.68 432 545.68C430.67 545.68 427.3 542.38 427.3 540" stroke="rgba(62, 103, 172, 0.5)" stroke-width="2"></path><path d="M117.39 756C167.15 720.17 161.99 694.13 216 682.84C265.3 672.53 275.77 688.62 324 712.8C348.74 725.2 342.67 734.68 361.95 756C396.67 794.4 405.2 790.92 432 832.24C440.22 844.92 432 848.12 432 864C432 918 432 918 432 972C432 1004.4 446.58 1036.8 432 1036.8C410 1036.8 389.85 1008.85 358.84 972C335.85 944.68 352.64 919.77 324 908.47C281.22 891.59 269.18 906.98 216 915.65C161.18 924.58 160.27 948.96 108 943.67C52.27 938.03 43.19 925.65 0 893.79C-10.81 885.81 0 878.89 0 864C0 840 -15.3 830.65 0 816C38.7 778.95 53.96 788.22 108 760.6C112.66 758.22 113.15 759.05 117.39 756" stroke="rgba(62, 103, 172, 0.5)" stroke-width="2"></path><path d="M0 1035C38.49 1008.83 61.15 994.85 108 1006.56C151.15 1017.35 168.56 1036.32 180 1080C192.32 1127.04 144.73 1142.86 155.52 1188C162.73 1218.15 181.84 1220.02 216 1230.59C266.08 1246.09 270.19 1241.78 324 1240.14C378.19 1238.49 399.46 1207.17 432 1224C453.46 1235.1 432 1260 432 1296C432 1350 432 1350 432 1404C432 1426.74 442.72 1449.47 432 1449.47C415.15 1449.47 401.67 1429.47 376.85 1404C347.67 1374.05 357.14 1341.35 324 1338.63C276.72 1334.74 268.67 1362.72 216 1390.78C207.31 1395.41 201.27 1397.19 201.27 1404C201.27 1411.17 206.39 1415.19 216 1418.73C267.76 1437.77 277.52 1422.26 324 1449.16C358.1 1468.89 351.9 1479.55 377.17 1512C405.9 1548.89 411.6 1547.64 432 1587.83C439.01 1601.64 432 1603.91 432 1620C432 1674 432 1674 432 1728C432 1782 432 1782 432 1836C432 1864.39 447.03 1892.77 432 1892.77C405.26 1892.77 357.73 1874.26 348.45 1836C337.75 1791.88 387.49 1783.29 392.05 1728C396.4 1675.29 389.95 1665.85 366.26 1620C355.92 1599.99 343.72 1596.29 324 1596.29C309.8 1596.29 304.97 1604.36 298.42 1620C277.37 1670.22 292.76 1678.89 268.8 1728C251.55 1763.35 250.2 1773.02 216 1788.92C169.8 1810.4 158.54 1787.22 108 1802.77C82.04 1810.76 69.85 1811.92 63 1836C49.76 1882.54 53.06 1895.44 67.81 1944C75.56 1969.53 82.59 1974.93 108 1984.19C156.68 2001.93 163.07 1986.24 216 1998C271.07 2010.23 271.43 2011.94 324 2032.16C341.63 2038.94 356.4 2038.11 356.4 2052C356.4 2075.03 340.4 2079.12 324 2106C307.44 2133.12 291.46 2130.61 290.48 2160C288.76 2211.61 303.04 2214.75 318.6 2268C319.8 2272.12 322.73 2270.64 324 2274.75C339.4 2324.64 351.93 2329 351.93 2376C351.93 2393.83 342.13 2398.21 324 2404.42C274.17 2421.47 263.47 2431.62 216 2422.52C189.31 2417.41 181.4 2403.99 175.68 2376C165.61 2326.73 182.41 2322.09 184.43 2268C186.45 2214.09 203.4 2205.37 183.76 2160C165.18 2117.07 149.99 2119.48 108 2091.41C69.23 2065.48 62.74 2075.12 22.24 2052C8.74 2044.3 2.98 2044.25 0 2029.76C-8.14 1990.25 0 1986.88 0 1944C0 1890 0 1890 0 1836C0 1813.09 -9.04 1809.93 0 1790.18C15.68 1755.93 25.68 1759.81 49.45 1728C79.68 1687.54 75.25 1683.38 108 1645.63C122.1 1629.38 143.16 1634.97 143.16 1620C143.16 1601.15 123.74 1600.33 108 1578C85.68 1546.33 79.37 1548.09 67.03 1512C49.63 1461.09 37.63 1452.92 48.52 1404C58.11 1360.92 77.38 1365.25 108 1328C121.76 1311.25 137.29 1313.24 137.29 1296C137.29 1274.51 130.58 1254.27 108 1250.53C61.93 1242.9 30.47 1290.9 0 1273.26C-23.53 1259.63 0 1230.63 0 1188C0 1134 0 1134 0 1080C0 1057.5 -15.51 1045.55 0 1035" stroke="rgba(62, 103, 172, 0.5)" stroke-width="2"></path><path d="M328.15 2268C328.15 2247.44 394.27 2225.81 432 2225.81C446.2 2225.81 432 2246.9 432 2268C432 2287.85 445.66 2307.71 432 2307.71C393.74 2307.71 328.15 2288.39 328.15 2268" stroke="rgba(62, 103, 172, 0.5)" stroke-width="2"></path><path d="M0 2308.19C10.57 2308.19 39.41 2340.82 39.41 2376C39.41 2421.75 10.25 2470.06 0 2470.06C-9.45 2470.06 0 2423.03 0 2376C0 2342.1 -9.14 2308.19 0 2308.19" stroke="rgba(62, 103, 172, 0.5)" stroke-width="2"></path><path d="M183.6 5184C189.3 5146.02 186.39 5128.6 216 5112C256.59 5089.25 280.68 5086.27 324 5105.29C362.66 5122.27 370.52 5140.18 379.95 5184C390.61 5233.53 383.25 5244.49 364.19 5292C355.28 5314.2 343.49 5306.97 324 5323.42C279.52 5360.97 270.36 5355.34 236.25 5400C216.36 5426.03 226.96 5432.69 216 5464.8C208.53 5486.69 214.62 5491.43 199.38 5508C160.62 5550.15 153.23 5582.25 108 5582.25C64.08 5582.25 59.09 5549.34 21.07 5508C5.09 5490.62 4.49 5487.8 0 5464.8C-6.05 5433.8 0 5432.4 0 5400C0 5365.9 -7.2 5331.79 0 5331.79C7.87 5331.79 6.22 5373.31 30.14 5400C60.22 5433.57 68.64 5452.31 108 5452.31C149.42 5452.31 172.36 5438.27 191.7 5400C212.86 5358.11 191.02 5345.97 189 5292C186.97 5237.97 175.8 5236.02 183.6 5184" stroke="rgba(62, 103, 172, 0.5)" stroke-width="2"></path><path d="M371.86 5400C399.29 5363.22 414.88 5330.37 432 5330.37C444.95 5330.37 432 5365.18 432 5400C432 5454 432 5454 432 5508C432 5562 432 5562 432 5616C432 5639.15 434.29 5662.29 432 5662.29C429.66 5662.29 437.86 5632.36 422.74 5616C383.86 5573.95 375.71 5576.74 324 5545.47C286.42 5522.74 244.17 5525.75 244.17 5508C244.17 5490.62 292.6 5501.77 324 5475.21C356.44 5447.77 345.29 5435.64 371.86 5400" stroke="rgba(62, 103, 172, 0.5)" stroke-width="2"></path><path d="M47.25 5724C78.86 5695.96 77.85 5665.09 108 5665.09C137.68 5665.09 134.62 5698.32 166.91 5724C188.62 5741.27 196.89 5731.45 216 5751C249.69 5785.45 252.89 5787.57 272.51 5832C294.62 5882.07 280.95 5888.26 299.45 5940C306.69 5960.26 314.16 5956.67 324 5976C341.65 6010.67 330.94 6018.09 354.42 6048C384.94 6086.87 404.64 6075.48 432 6113.57C443.43 6129.48 432 6134.78 432 6156C432 6210 432 6210 432 6264C432 6318 432 6318 432 6372C432 6387.43 436.29 6388.28 432 6402.86C420.41 6442.28 400.24 6441.92 400.24 6480C400.24 6513.21 421.98 6511.38 432 6545.45C437.86 6565.38 432 6566.73 432 6588C432 6642 432 6642 432 6696C432 6718.93 448.09 6735.62 432 6741.86C394.09 6756.56 372.51 6752.64 324 6737.88C297.14 6729.71 281.25 6719.01 281.25 6696C281.25 6666.98 298.79 6661.39 324 6633.82C348.17 6607.39 380 6607.04 380 6588C380 6571.93 352.78 6563.61 324 6563.61C282.78 6563.61 281.14 6573.72 240 6588C227.14 6592.46 227.45 6601.09 216 6601.09C207.14 6601.09 204.77 6596.96 199.38 6588C168.38 6536.42 149.18 6536.01 143.22 6480C137.69 6428.01 186.02 6419.03 176.4 6372C168.41 6332.97 139.71 6307.88 108 6307.88C80.49 6307.88 87.48 6345.05 57.95 6372C33.48 6394.33 19.18 6406.43 0 6406.43C-9.8 6406.43 0 6389.22 0 6372C0 6318 0 6318 0 6264C0 6210 0 6210 0 6156C0 6102 0 6102 0 6048C0 6022.39 -12.37 5996.78 0 5996.78C19.89 5996.78 40.48 6015.9 64.52 6048C94.48 6088.01 84.82 6141 108 6141C131.92 6141 158.73 6091.36 158.73 6048C158.73 6017.41 132.01 6021.69 108 5993.11C86.64 5967.69 89.82 5965 68 5940C35.82 5903.14 24.61 5908.47 0 5869.38C-9.39 5854.47 0 5850.69 0 5832C0 5796.44 -12.82 5790.18 0 5760.88C10.8 5736.18 24.86 5743.86 47.25 5724" stroke="rgba(62, 103, 172, 0.5)" stroke-width="2"></path><path d="M108 5821.2C104.82 5821.2 100.55 5827.03 100.55 5832C100.55 5835.81 104.68 5838.75 108 5838.75C110.7 5838.75 112.6 5835.6 112.6 5832C112.6 5826.83 110.85 5821.2 108 5821.2" stroke="rgba(62, 103, 172, 0.5)" stroke-width="2"></path><path d="M346.04 5940C346.04 5900.34 407.25 5846.4 432 5846.4C450.23 5846.4 432 5893.2 432 5940C432 5963.4 445.9 5986.8 432 5986.8C402.92 5986.8 346.04 5970.54 346.04 5940" stroke="rgba(62, 103, 172, 0.5)" stroke-width="2"></path><path d="M324 6189.64C291.2 6189.64 259.2 6229.5 259.2 6264C259.2 6293.36 291.31 6317.36 324 6317.36C357.56 6317.36 391.7 6293.47 391.7 6264C391.7 6229.61 357.45 6189.64 324 6189.64" stroke="rgba(62, 103, 172, 0.5)" stroke-width="2"></path><path d="M27 6696C27 6663.75 70.03 6628.97 108 6628.97C140.44 6628.97 167.82 6663.45 167.82 6696C167.82 6726.42 140.11 6754.91 108 6754.91C69.7 6754.91 27 6726.72 27 6696" stroke="rgba(62, 103, 172, 0.5)" stroke-width="2"></path><path d="M82.8 6912C91.06 6892.59 89.62 6878.39 108 6877.64C156.22 6875.69 163.02 6890.46 216 6906.6C219.42 6907.64 220.8 6908.86 220.8 6912C220.8 6917.91 218.73 6918.49 216 6924.71C195.02 6972.49 204.11 6980.25 173.37 7020C150.11 7050.08 140.29 7064.36 108 7064.36C77.31 7064.36 52.42 7050.31 47.41 7020C39.82 6974.13 60.77 6963.77 82.8 6912" stroke="rgba(62, 103, 172, 0.5)" stroke-width="2"></path><path d="M429.55 6912C430.92 6910.9 431.29 6909.49 432 6909.49C432.51 6909.49 432 6910.74 432 6912C432 6966 432 6966 432 7020C432 7031.15 438.91 7034.14 432 7042.29C393.14 7088.14 384.86 7083.9 340.47 7128C330.86 7137.55 333.71 7149.6 324 7149.6C311.18 7149.6 301.32 7143.95 295.41 7128C277.32 7079.15 266.39 7064.23 276 7020C280.68 6998.45 302.24 7011.75 324 6996.44C379.01 6957.75 376.92 6954.38 429.55 6912" stroke="rgba(62, 103, 172, 0.5)" stroke-width="2"></path><path d="M55.32 7236C80.75 7214.54 77.35 7202.97 108 7195.25C157.69 7182.72 168.67 7181.7 216 7195.5C238.55 7202.08 230.09 7217.37 247.76 7236C284.09 7274.3 278.46 7292.9 324 7309.36C370.58 7326.2 392.94 7290.07 432 7302.6C446.94 7307.39 432 7323.3 432 7344C432 7398 432 7398 432 7452C432 7506 432 7506 432 7560C432 7600.5 434.88 7641 432 7641C429.09 7641 427.45 7600.29 420.43 7560C410.98 7505.79 423.5 7498.73 399.05 7452C375.28 7406.56 359.64 7375.66 324 7375.66C291.36 7375.66 295.24 7415.68 262.5 7452C241.24 7475.59 240.83 7475.65 216 7495.48C173.22 7529.65 170.82 7526.74 127.29 7560C116.82 7568 117.45 7578 108 7578C98.96 7578 100.7 7567.04 90.3 7560C46.7 7530.5 30.09 7540.91 0 7504.92C-15.06 7486.91 0 7478.46 0 7452C0 7398 0 7398 0 7344C0 7315.2 -12.03 7309.89 0 7286.4C15.63 7255.89 26.75 7260.11 55.32 7236" stroke="rgba(62, 103, 172, 0.5)" stroke-width="2"></path><path d="M108 7329.91C100.63 7329.91 96 7335.68 96 7344C96 7362.98 98.94 7384.5 108 7384.5C118.44 7384.5 135 7360.79 135 7344C135 7333.49 120.13 7329.91 108 7329.91" stroke="rgba(62, 103, 172, 0.5)" stroke-width="2"></path><path d="M0 7651.8C4.84 7651.8 7.08 7661.32 16.47 7668C61.08 7699.75 61.59 7699.36 108 7728.67C147.09 7753.36 158.08 7743.53 187.47 7776C212.08 7803.19 195.82 7816.1 216 7848C229.98 7870.1 254.88 7860.85 255.79 7884C257.72 7932.85 238.3 7937.87 221.68 7992C218.4 8002.67 225.12 8008.29 216 8013.6C168.28 8041.38 161.65 8035.08 108 8058.19C61.36 8078.28 18.62 8067.58 15.43 8100C11.25 8142.49 52.77 8155.49 93.27 8208C99.05 8215.49 101.1 8220 108 8220C113.86 8220 112.75 8213.34 118.8 8208C166.75 8165.68 167.7 8166.69 216 8124.69C229.8 8112.69 227.61 8109.67 243 8100C281.61 8075.73 287.52 8083.82 324 8056.8C360.42 8029.82 357.12 8025.09 388.8 7992C411.12 7968.69 419.61 7944 432 7944C441.21 7944 432 7968 432 7992C432 8040 437.1 8042.11 432 8088C431.1 8096.11 422.92 8092.16 420 8100C400.58 8152.16 416.98 8165.61 387.31 8208C368.98 8234.18 355.8 8222.89 324 8237.14C270.15 8261.26 267.02 8256.39 216 8284.74C196.05 8295.82 184.81 8295.3 182.06 8316C175.56 8364.93 202.84 8371.25 197.49 8424C191.88 8479.25 169.26 8476.48 160.14 8532C151.52 8584.48 157.78 8586.26 162 8640C166.27 8694.26 177.48 8694.05 177.12 8748C176.75 8802.05 170.16 8802.24 160.54 8856C150.83 8910.24 156.76 8913.46 138.46 8964C130.49 8986.02 123.47 9001.13 108 9001.13C92.19 9001.13 94.95 8979.09 75.89 8964C40.95 8936.32 22.83 8948.08 0 8915.59C-15.11 8894.08 0 8885.79 0 8856C0 8809.29 -4.28 8807.95 0 8762.59C0.82 8753.95 7.81 8756.49 10.19 8748C24.99 8695.2 32.13 8694.39 34.36 8640C36.56 8586.39 16.34 8585.49 19.06 8532C21.84 8477.49 37.42 8478.75 45.36 8424C53.09 8370.75 63.73 8364.39 50.4 8316C41.05 8282.04 15.03 8291.52 0 8259.3C-10.17 8237.52 0 8233.65 0 8208C0 8154 0 8154 0 8100C0 8046 0 8046 0 7992C0 7938 0 7938 0 7884C0 7830 0 7830 0 7776C0 7722 0 7722 0 7668C0 7659.9 -3.39 7651.8 0 7651.8" stroke="rgba(62, 103, 172, 0.5)" stroke-width="2"></path><path d="M236.68 7668C239.59 7634.69 279.59 7621.36 324 7621.36C374.55 7621.36 425.71 7634.34 426.6 7668C427.75 7711.66 374.33 7720.36 328.08 7776C323.03 7782.07 327.85 7791.43 324 7791.43C319.06 7791.43 316.42 7784.36 310.5 7776C272.76 7722.65 232.84 7712.01 236.68 7668" stroke="rgba(62, 103, 172, 0.5)" stroke-width="2"></path><path d="M393 8316C405.39 8276.65 421.65 8242.11 432 8242.11C441.15 8242.11 432 8279.06 432 8316C432 8370 432 8370 432 8424C432 8472.46 445.25 8520.92 432 8520.92C416.61 8520.92 384.61 8475.93 374.73 8424C365.11 8373.47 376.76 8367.59 393 8316" stroke="rgba(62, 103, 172, 0.5)" stroke-width="2"></path><path d="M276.75 8640C286.32 8611.2 296.89 8595 324 8595C366.62 8595 378.92 8609.55 416.2 8640C432.92 8653.65 428.72 8660.78 432 8683.2C436.62 8714.78 432 8715.6 432 8748C432 8759.3 439.2 8762.55 432 8770.6C390.89 8816.55 380.78 8811.01 335.37 8856C326.78 8864.51 330.94 8877.6 324 8877.6C315.86 8877.6 310.37 8869.13 305.22 8856C284.96 8804.33 280.45 8803.12 273.18 8748C266.21 8695.12 260.91 8687.7 276.75 8640" stroke="rgba(62, 103, 172, 0.5)" stroke-width="2"></path><path d="M0 9091.89C11.97 9091.89 45.24 9138.01 45.24 9180C45.24 9211.43 12.62 9238.74 0 9238.74C-10 9238.74 0 9209.37 0 9180C0 9135.94 -10.65 9091.89 0 9091.89" stroke="rgba(62, 103, 172, 0.5)" stroke-width="2"></path><path d="M189.47 9180C189.47 9164.73 202.57 9154.8 216 9154.8C229.83 9154.8 244 9164.53 244 9180C244 9207.37 229.69 9240.48 216 9240.48C202.43 9240.48 189.47 9207.57 189.47 9180" stroke="rgba(62, 103, 172, 0.5)" stroke-width="2"></path><path d="M376.05 9180C403.62 9149.08 415.9 9118.89 432 9118.89C443.87 9118.89 432 9149.44 432 9180C432 9234 432 9234 432 9288C432 9336.6 433.93 9336.97 432 9385.2C431.77 9390.97 432.82 9393.65 427.68 9396C378.82 9418.39 374.52 9434.69 324 9434.69C286.68 9434.69 269.28 9427.54 252 9396C229.1 9354.2 224.32 9329.84 243.63 9288C260.32 9251.84 288.18 9269.21 324 9240C354.39 9215.21 349.62 9209.64 376.05 9180" stroke="rgba(62, 103, 172, 0.5)" stroke-width="2"></path><path d="M0 9327C32.99 9308.54 58.76 9318.06 108 9335.57C155.78 9352.56 194.03 9363.42 194.03 9396C194.03 9431.52 155.57 9441.38 108 9471.76C71.02 9495.38 65.41 9485.84 24.92 9504C11.41 9510.06 8.06 9520.2 0 9520.2C-4.4 9520.2 0 9512.1 0 9504C0 9450 0 9450 0 9396C0 9361.5 -21.01 9338.76 0 9327" stroke="rgba(62, 103, 172, 0.5)" stroke-width="2"></path><path d="M397.71 9504C397.71 9455.24 423.2 9401.14 432 9401.14C440.35 9401.14 432 9452.57 432 9504C432 9527.48 439.66 9550.96 432 9550.96C422.52 9550.96 397.71 9530.15 397.71 9504" stroke="rgba(62, 103, 172, 0.5)" stroke-width="2"></path><path d="M53.22 9612C53.22 9579.37 72.37 9551.15 108 9543.27C153.76 9533.15 160.82 9567.2 216 9576C268.82 9584.42 273.63 9566.01 324 9577.71C351.11 9584.01 370.96 9593.64 370.96 9612C370.96 9631.96 347.34 9633.02 324 9654.35C288.25 9687.02 287.77 9686.55 252.77 9720C233.77 9738.16 233.91 9757.57 216 9757.57C198.91 9757.57 201.73 9736.21 182.77 9720C147.73 9690.05 143.51 9694.84 108 9665.24C78.73 9640.84 53.22 9640.36 53.22 9612" stroke="rgba(62, 103, 172, 0.5)" stroke-width="2"></path><path d="M409.85 9720C409.85 9707.45 425.69 9694.59 432 9694.59C436.76 9694.59 432 9707.29 432 9720C432 9732 436.69 9744 432 9744C425.62 9744 409.85 9732.16 409.85 9720" stroke="rgba(62, 103, 172, 0.5)" stroke-width="2"></path><path d="M0 9765.96C12.85 9765.96 20.7 9799.13 46.29 9828C74.7 9860.06 75.48 9859.86 108 9887.82C138.29 9913.86 148.89 9904.79 171.92 9936C202.89 9977.97 193.04 9985.61 216 10034.18C218.57 10039.61 222.97 10040.89 222.97 10044C222.97 10045.8 219.49 10044 216 10044C162 10044 162 10044 108 10044C105.49 10044 104.38 10046.03 102.98 10044C67.1 9992.03 70.81 9987.95 33.43 9936C19.32 9916.4 6.68 9922.47 0 9900.9C-10.04 9868.47 0 9864.45 0 9828C0 9796.98 -10.3 9765.96 0 9765.96" stroke="rgba(62, 103, 172, 0.5)" stroke-width="2"></path><path d="M376 9936C390.73 9897.89 416.06 9871.2 432 9871.2C444.06 9871.2 432 9903.6 432 9936C432 9990 452.63 10010.63 432 10044C419.24 10064.63 375.88 10064.57 365.21 10044C347.88 10010.57 357.33 9984.29 376 9936" stroke="rgba(62, 103, 172, 0.5)" stroke-width="2"></path><path d="M52.74 108C52.74 87.32 75.12 70.75 108 60.48C156.75 45.25 171.01 41.75 216 57C241.11 65.51 248.21 81.86 248.21 108C248.21 137.96 242.67 163.62 216 169.2C172.57 178.29 160.48 157 108 137.33C78.85 126.4 52.74 125.75 52.74 108" stroke="rgba(62, 103, 172, 0.5)" stroke-width="2"></path><path d="M298.59 216C298.59 210.16 312.79 206.18 324 206.18C328.93 206.18 330.86 210.81 330.86 216C330.86 222.92 329.7 230.4 324 230.4C313.56 230.4 298.59 222.27 298.59 216" stroke="rgba(62, 103, 172, 0.5)" stroke-width="2"></path><path d="M409.09 324C409.09 318.53 424.08 312.55 432 312.55C435.54 312.55 432 318.27 432 324C432 329.11 435.32 334.22 432 334.22C423.86 334.22 409.09 329.36 409.09 324" stroke="rgba(62, 103, 172, 0.5)" stroke-width="2"></path><path d="M84.86 432C92.58 400.94 90.36 372 108 372C130.86 372 160.44 396.29 165.86 432C173.19 480.29 155.42 489.43 133.5 540C126.49 556.18 122.27 565.5 108 565.5C88.65 565.5 69.84 560.6 66.27 540C58.27 493.85 71.71 484.94 84.86 432" stroke="rgba(62, 103, 172, 0.5)" stroke-width="2"></path><path d="M302.4 756C302.4 753.44 313.54 754.34 324 754.34C325.07 754.34 325.46 754.96 325.46 756C325.46 760.29 327.23 765 324 765C315.7 765 302.4 758.77 302.4 756" stroke="rgba(62, 103, 172, 0.5)" stroke-width="2"></path><path d="M49.62 864C49.62 842.8 78.34 818.04 108 818.04C139.3 818.04 171.53 842.89 171.53 864C171.53 883.58 139.44 899.41 108 899.41C78.48 899.41 49.62 883.48 49.62 864" stroke="rgba(62, 103, 172, 0.5)" stroke-width="2"></path><path d="M402.39 972C402.39 934.09 424.38 888.55 432 888.55C439.18 888.55 432 930.28 432 972C432 985.12 437.9 998.23 432 998.23C423.1 998.23 402.39 988.93 402.39 972" stroke="rgba(62, 103, 172, 0.5)" stroke-width="2"></path><path d="M56.84 1080C56.84 1061.74 84.55 1060.56 108 1060.56C119.66 1060.56 127.06 1067.62 127.06 1080C127.06 1117.84 124.32 1161 108 1161C89.21 1161 56.84 1111.96 56.84 1080" stroke="rgba(62, 103, 172, 0.5)" stroke-width="2"></path><path d="M183.05 1296C183.05 1280.79 197.33 1268.62 216 1268.62C248.52 1268.62 285.43 1279.82 285.43 1296C285.43 1313.34 247.12 1335.67 216 1335.67C195.93 1335.67 183.05 1314.31 183.05 1296" stroke="rgba(62, 103, 172, 0.5)" stroke-width="2"></path><path d="M87.65 1404C87.65 1388.74 96.37 1378 108 1378C122.5 1378 139.91 1386.6 139.91 1404C139.91 1443.47 121.3 1491.75 108 1491.75C95.17 1491.75 87.65 1445.62 87.65 1404" stroke="rgba(62, 103, 172, 0.5)" stroke-width="2"></path><path d="M128.25 1512C130.32 1483.15 170.96 1483.25 216 1480.09C268.83 1476.38 272.63 1484.55 324 1498.25C332.45 1500.5 335.63 1504.72 335.63 1512C335.63 1520.81 331.69 1522.77 324 1530.44C277.56 1576.77 250.72 1565.85 227.37 1620C208.12 1664.63 243.1 1677.15 238.8 1728C237.42 1744.3 231.92 1750.27 216 1754.31C166.52 1766.88 156.21 1770.69 108 1761.23C89.2 1757.54 81.98 1744.92 81.98 1728C81.98 1710 91.24 1705.99 108 1691.39C153.23 1651.99 201.12 1662.76 205.95 1620C211.25 1573.06 125.3 1553.11 128.25 1512" stroke="rgba(62, 103, 172, 0.5)" stroke-width="2"></path><path d="M429.04 1728C431.18 1719.84 431.25 1711.38 432 1711.38C432.73 1711.38 432 1719.69 432 1728C432 1782 432 1782 432 1836C432 1847.07 437.86 1858.15 432 1858.15C421.56 1858.15 399.79 1852.94 399.4 1836C398.31 1787.86 414.88 1782.15 429.04 1728" stroke="rgba(62, 103, 172, 0.5)" stroke-width="2"></path><path d="M0 1831.09C2.12 1831.09 6.57 1831.95 6.75 1836C9.08 1888.41 8.16 1890.81 5.02 1944C4.78 1947.99 1.41 1950.35 0 1950.35C-1.1 1950.35 0 1947.18 0 1944C0 1890 0 1890 0 1836C0 1833.55 -1.25 1831.09 0 1831.09" stroke="rgba(62, 103, 172, 0.5)" stroke-width="2"></path><path d="M101.65 2052C101.65 2049.87 104.05 2047.68 108 2046.98C161.22 2037.55 163.07 2030.09 216 2031.75C243.2 2032.6 268.26 2033.39 268.26 2052C268.26 2084.01 249.63 2132.39 216 2133C169.5 2133.85 162.33 2093.4 108 2054.92C105.15 2052.9 101.65 2053.84 101.65 2052" stroke="rgba(62, 103, 172, 0.5)" stroke-width="2"></path><path d="M0 2370.98C0.78 2370.98 2.92 2373.39 2.92 2376C2.92 2379.39 0.76 2382.97 0 2382.97C-0.7 2382.97 0 2379.48 0 2376C0 2373.49 -0.68 2370.98 0 2370.98" stroke="rgba(62, 103, 172, 0.5)" stroke-width="2"></path><path d="M211.68 2376C211.68 2358.66 209.38 2340 216 2340C224 2340 240.92 2363.04 240.92 2376C240.92 2383.53 227.61 2380.98 216 2380.98C212.99 2380.98 211.68 2379.15 211.68 2376" stroke="rgba(62, 103, 172, 0.5)" stroke-width="2"></path><path d="M0 2803.68C0.88 2803.68 3.18 2805.39 3.18 2808C3.18 2825.55 0.8 2844 0 2844C-0.79 2844 0 2826 0 2808C0 2805.84 -0.71 2803.68 0 2803.68" stroke="rgba(62, 103, 172, 0.5)" stroke-width="2"></path><path d="M324 2808C324 2794.34 386.2 2788.36 432 2788.36C440.2 2788.36 432 2798.18 432 2808C432 2826 444.97 2844 432 2844C390.97 2844 324 2822.16 324 2808" stroke="rgba(62, 103, 172, 0.5)" stroke-width="2"></path><path d="M86.4 2916C86.4 2914.87 98.06 2918.44 108 2914.39C162.86 2892.04 163.27 2862.77 216 2863.2C261.27 2863.57 304 2890.22 304 2916C304 2941.37 261.27 2964.83 216 2965.5C163.27 2966.29 162.67 2939.8 108 2918.92C97.87 2915.05 86.4 2917.14 86.4 2916" stroke="rgba(62, 103, 172, 0.5)" stroke-width="2"></path><path d="M422.31 3132C422.31 3119.55 429.5 3105.93 432 3105.93C434.34 3105.93 432 3118.97 432 3132C432 3139.13 434.19 3146.26 432 3146.26C429.35 3146.26 422.31 3139.72 422.31 3132" stroke="rgba(62, 103, 172, 0.5)" stroke-width="2"></path><path d="M0 3214.85C44.08 3192.81 57.97 3179.1 108 3186C149.09 3191.67 150.85 3207.78 182.25 3240C204.85 3263.2 199.5 3296.84 216 3296.84C232.25 3296.84 223.69 3258.75 247.76 3240C277.69 3216.69 287.88 3212.72 324 3212.72C344.52 3212.72 358.76 3220.07 361.03 3240C366.47 3287.71 322.61 3303.5 339.43 3348C358.09 3397.37 394.41 3383.89 432 3427.75C440.69 3437.89 432 3441.88 432 3456C432 3466.2 440.58 3474.48 432 3476.4C386.58 3486.57 374.86 3487.7 324 3480.18C305.86 3477.5 307.34 3469.83 294 3456C253.34 3413.86 261.62 3401.67 216 3368.25C187.9 3347.67 180.3 3360.57 146.57 3348C126.3 3340.45 126.73 3338.98 108 3328C53.45 3296.04 45.96 3299.57 0 3262.12C-8.04 3255.57 0 3251.06 0 3240C0 3227.43 -9.92 3219.81 0 3214.85" stroke="rgba(62, 103, 172, 0.5)" stroke-width="2"></path><path d="M404.6 3672C404.6 3657.86 423.42 3651.6 432 3651.6C437.12 3651.6 432 3661.8 432 3672C432 3707.31 438.61 3742.62 432 3742.62C424.91 3742.62 404.6 3703.37 404.6 3672" stroke="rgba(62, 103, 172, 0.5)" stroke-width="2"></path><path d="M180.65 3780C189.65 3749.16 199.99 3724.46 216 3724.46C230.98 3724.46 236.72 3750.33 242.63 3780C253.01 3832.1 228.72 3840.95 248.57 3888C269.41 3937.38 278.74 3942.66 324 3972.86C359.66 3996.66 407.14 3969.15 410.4 3996C415.1 4034.72 372.78 4048.73 339.93 4104C329.58 4121.42 337.36 4141.38 324 4141.38C302.4 4141.38 295.32 4124.76 270 4104C241.32 4080.49 241.35 4079.96 216 4052.84C190.87 4025.96 178.72 4029.44 169.04 3996C154.86 3947.02 165.39 3941.82 168.28 3888C171.19 3833.82 165.79 3830.93 180.65 3780" stroke="rgba(62, 103, 172, 0.5)" stroke-width="2"></path><path d="M0 3942C6.67 3942 25.41 3975.03 25.41 3996C25.41 4005.2 10.23 4002.35 0 4002.35C-2.48 4002.35 0 3999.18 0 3996C0 3969 -6.04 3942 0 3942" stroke="rgba(62, 103, 172, 0.5)" stroke-width="2"></path><path d="M201.51 4212C207.94 4182.12 203.03 4152.6 216 4152.6C231.49 4152.6 234.42 4184.71 258.43 4212C288.42 4246.07 284.79 4255.65 324 4275.31C371.57 4299.15 386.62 4280.22 432 4299C440.62 4302.57 432 4309.5 432 4320C432 4337.18 444.98 4351.53 432 4354.36C390.98 4363.31 377.64 4351.42 324 4343.56C269.64 4335.59 270.21 4331.57 216 4322.7C198.21 4319.79 181.79 4333.67 180 4320C174.54 4278.32 189.94 4265.82 201.51 4212" stroke="rgba(62, 103, 172, 0.5)" stroke-width="2"></path><path d="M0 4404C1.57 4404 6.17 4416.16 6.17 4428C6.17 4436.47 1.59 4444.62 0 4444.62C-1.49 4444.62 0 4436.31 0 4428C0 4416 -1.52 4404 0 4404" stroke="rgba(62, 103, 172, 0.5)" stroke-width="2"></path><path d="M199.8 4536C207.8 4531.94 207.22 4528.29 216 4528.29C255.82 4528.29 291.74 4512.75 297 4536C304.83 4570.61 252.11 4587.24 242.18 4644C233.21 4695.24 268.4 4708.22 259.2 4752C255.31 4770.53 232.79 4753.55 216 4768.62C172.62 4807.55 164.76 4808.14 138.86 4860C114.97 4907.83 129.03 4914.4 116.42 4968C113.6 4979.97 115.51 4991.14 108 4991.14C96.58 4991.14 92.59 4980.37 78.55 4968C38.59 4932.8 29.36 4936.36 0 4896C-9.92 4882.36 0 4878 0 4860C0 4812 -7.34 4808.07 0 4764C1.66 4754.07 12.53 4761.12 18 4752C48.53 4701.12 43.63 4697.25 72 4644C88.63 4612.79 82 4605.05 108 4583.08C145.9 4551.05 153.8 4559.34 199.8 4536" stroke="rgba(62, 103, 172, 0.5)" stroke-width="2"></path><path d="M427.09 4968C427.09 4963.11 430.7 4958.18 432 4958.18C433.16 4958.18 432 4963.09 432 4968C432 4972.69 433.15 4977.39 432 4977.39C430.7 4977.39 427.09 4972.72 427.09 4968" stroke="rgba(62, 103, 172, 0.5)" stroke-width="2"></path><path d="M0 5157C3.21 5157 12.27 5171.34 12.27 5184C12.27 5192.14 3.48 5198.59 0 5198.59C-2.66 5198.59 0 5191.3 0 5184C0 5170.5 -2.92 5157 0 5157" stroke="rgba(62, 103, 172, 0.5)" stroke-width="2"></path><path d="M271.46 5184C271.46 5162.47 301.01 5151.05 324 5151.05C338.99 5151.05 347.42 5165.73 347.42 5184C347.42 5218.21 341.44 5256 324 5256C303.46 5256 271.46 5214.94 271.46 5184" stroke="rgba(62, 103, 172, 0.5)" stroke-width="2"></path><path d="M402.55 5400C409.87 5379.35 423.62 5365.89 432 5365.89C438.34 5365.89 432 5382.94 432 5400C432 5454 432 5454 432 5508C432 5521.03 439.93 5534.07 432 5534.07C414.73 5534.07 386.61 5530.81 381.6 5508C371.89 5463.78 384.67 5450.41 402.55 5400" stroke="rgba(62, 103, 172, 0.5)" stroke-width="2"></path><path d="M86.93 5508C86.93 5500.53 97.39 5494.5 108 5494.5C119 5494.5 130.15 5500.5 130.15 5508C130.15 5516.25 118.96 5526 108 5526C97.35 5526 86.93 5516.28 86.93 5508" stroke="rgba(62, 103, 172, 0.5)" stroke-width="2"></path><path d="M0 5826.73C2.36 5826.73 7.45 5829.85 7.45 5832C7.45 5833.87 2.76 5834.77 0 5834.77C-0.96 5834.77 0 5833.39 0 5832C0 5829.36 -1.36 5826.73 0 5826.73" stroke="rgba(62, 103, 172, 0.5)" stroke-width="2"></path><path d="M170.04 5832C188.74 5809.99 195.71 5796 216 5796C231.25 5796 237.93 5811.2 241.12 5832C248.97 5883.2 226.93 5888.6 238.09 5940C250.37 5996.6 294.04 6000.04 288 6048C282.99 6087.79 241.93 6115.5 216 6115.5C197.75 6115.5 217.98 6076.3 199.64 6048C163.98 5992.98 153.43 5998.75 108 5948.85C104.27 5944.75 101.33 5944.88 101.33 5940C101.33 5932.02 103.15 5930.76 108 5923.13C137.5 5876.76 134.74 5873.56 170.04 5832" stroke="rgba(62, 103, 172, 0.5)" stroke-width="2"></path><path d="M401.14 5940C401.14 5925.76 423.11 5906.4 432 5906.4C438.54 5906.4 432 5923.2 432 5940C432 5948.4 436.99 5956.8 432 5956.8C421.56 5956.8 401.14 5950.96 401.14 5940" stroke="rgba(62, 103, 172, 0.5)" stroke-width="2"></path><path d="M0 6024.62C9.08 6024.62 29.45 6032.76 29.45 6048C29.45 6076.85 7.71 6112.8 0 6112.8C-7.02 6112.8 0 6080.4 0 6048C0 6036.31 -5.65 6024.62 0 6024.62" stroke="rgba(62, 103, 172, 0.5)" stroke-width="2"></path><path d="M370.29 6156C370.29 6136.21 405.5 6145.71 432 6145.71C436.36 6145.71 432 6150.85 432 6156C432 6210 446.34 6264 432 6264C415.48 6264 370.29 6195.35 370.29 6156" stroke="rgba(62, 103, 172, 0.5)" stroke-width="2"></path><path d="M0 6214.15C16.09 6214.15 54 6235.45 54 6264C54 6303.58 14.61 6350.4 0 6350.4C-12.39 6350.4 0 6307.2 0 6264C0 6239.08 -10.91 6214.15 0 6214.15" stroke="rgba(62, 103, 172, 0.5)" stroke-width="2"></path><path d="M194.4 6264C194.4 6247.67 208.97 6228 216 6228C222.08 6228 220.63 6246.13 220.63 6264C220.63 6273.66 221.31 6283.06 216 6283.06C208.2 6283.06 194.4 6275.2 194.4 6264" stroke="rgba(62, 103, 172, 0.5)" stroke-width="2"></path><path d="M263.25 6372C286 6351.26 293.8 6349.13 324 6349.13C351.94 6349.13 373.08 6348.84 379.54 6372C391.34 6414.28 379.11 6430.46 360.53 6480C351.34 6504.49 347.98 6516.08 324 6520.06C275.71 6528.08 264.65 6519.96 216 6504C203.6 6499.93 201.91 6492.43 201.91 6480C201.91 6464.23 207.3 6462.93 216 6447.6C237.97 6408.93 232 6400.49 263.25 6372" stroke="rgba(62, 103, 172, 0.5)" stroke-width="2"></path><path d="M83.25 6696C83.25 6686.15 96.4 6675.52 108 6675.52C117.91 6675.52 126.28 6686.05 126.28 6696C126.28 6705.29 117.81 6714 108 6714C96.3 6714 83.25 6705.39 83.25 6696" stroke="rgba(62, 103, 172, 0.5)" stroke-width="2"></path><path d="M378 6696C378 6683.83 414.63 6660 432 6660C441.63 6660 432 6678 432 6696C432 6700.44 435.77 6704.88 432 6704.88C408.77 6704.88 378 6706.27 378 6696" stroke="rgba(62, 103, 172, 0.5)" stroke-width="2"></path><path d="M0 7348.32C15.76 7348.32 58.91 7409.91 58.91 7452C58.91 7474.71 21 7477.92 0 7477.92C-8.46 7477.92 0 7464.96 0 7452C0 7400.16 -13.7 7348.32 0 7348.32" stroke="rgba(62, 103, 172, 0.5)" stroke-width="2"></path><path d="M191.08 7452C191.08 7440.74 206.57 7422.55 216 7422.55C223.53 7422.55 225 7438.48 225 7452C225 7457.41 221.41 7460.42 216 7460.42C204.45 7460.42 191.08 7459.68 191.08 7452" stroke="rgba(62, 103, 172, 0.5)" stroke-width="2"></path><path d="M294.13 7668C294.13 7656.79 308.81 7652.05 324 7652.05C341.29 7652.05 359.1 7656.36 359.1 7668C359.1 7683.84 340.78 7707 324 7707C308.29 7707 294.13 7684.26 294.13 7668" stroke="rgba(62, 103, 172, 0.5)" stroke-width="2"></path><path d="M0 7732C38.7 7725.91 55.42 7742.06 108 7759.01C123.68 7764.06 131.49 7761.41 136.53 7776C153.09 7823.9 159.26 7833.16 151.2 7884C144.99 7923.16 141.06 7940.76 108 7956C65.46 7975.6 32.83 7975.56 0 7953.68C-21.17 7939.56 0 7918.84 0 7884C0 7830 0 7830 0 7776C0 7754 -15.3 7734.41 0 7732" stroke="rgba(62, 103, 172, 0.5)" stroke-width="2"></path><path d="M208.8 8208C208.8 8204.99 211.73 8201.83 216 8201.83C226.13 8201.83 237.6 8205.03 237.6 8208C237.6 8210.95 226.21 8213.68 216 8213.68C211.81 8213.68 208.8 8210.91 208.8 8208" stroke="rgba(62, 103, 172, 0.5)" stroke-width="2"></path><path d="M430.5 8316C430.73 8314.41 431.6 8313.16 432 8313.16C432.35 8313.16 432 8314.58 432 8316C432 8370 432 8370 432 8424C432 8437.85 435.78 8451.69 432 8451.69C427.6 8451.69 415.81 8439.46 415.64 8424C415.06 8371.61 422.55 8369.83 430.5 8316" stroke="rgba(62, 103, 172, 0.5)" stroke-width="2"></path><path d="M99.36 8424C101.48 8380.68 102.77 8337.6 108 8337.6C113.26 8337.6 119.09 8380.6 120.34 8424C121.89 8477.8 110.69 8478.33 113.59 8532C116.52 8586.33 125.08 8585.71 132 8640C138.85 8693.71 147.7 8695.66 141.12 8748C135.7 8791.06 127.35 8830.8 108 8830.8C87.36 8830.8 68.76 8792.48 61.13 8748C52.4 8697.08 66 8693.62 75.27 8640C84.67 8585.62 92.38 8586.61 98.47 8532C104.42 8478.61 96.72 8477.88 99.36 8424" stroke="rgba(62, 103, 172, 0.5)" stroke-width="2"></path><path d="M310.5 8640C310.5 8631.21 316.26 8627.14 324 8627.14C336.18 8627.14 350.34 8627.57 350.34 8640C350.34 8683.09 334.09 8738.18 324 8738.18C314.17 8738.18 310.5 8686.73 310.5 8640" stroke="rgba(62, 103, 172, 0.5)" stroke-width="2"></path><path d="M0 8835.57C19.94 8835.57 54 8847.47 54 8856C54 8864.2 21.87 8869.03 0 8869.03C-5.13 8869.03 0 8862.51 0 8856C0 8845.78 -7.06 8835.57 0 8835.57" stroke="rgba(62, 103, 172, 0.5)" stroke-width="2"></path><path d="M0 9162.95C2.32 9162.95 8.76 9171.87 8.76 9180C8.76 9186.08 2.44 9191.37 0 9191.37C-1.94 9191.37 0 9185.69 0 9180C0 9171.47 -2.06 9162.95 0 9162.95" stroke="rgba(62, 103, 172, 0.5)" stroke-width="2"></path><path d="M408.58 9180C408.58 9165.12 425.26 9154.42 432 9154.42C436.97 9154.42 432 9167.21 432 9180C432 9208.59 437.63 9237.18 432 9237.18C425.92 9237.18 408.58 9206.5 408.58 9180" stroke="rgba(62, 103, 172, 0.5)" stroke-width="2"></path><path d="M306.42 9288C306.42 9278.78 314.61 9277.5 324 9277.5C339.83 9277.5 356.87 9274.54 356.87 9288C356.87 9327.04 336.87 9382.5 324 9382.5C311.64 9382.5 306.42 9331.28 306.42 9288" stroke="rgba(62, 103, 172, 0.5)" stroke-width="2"></path><path d="M0 9364.5C41.81 9353.55 57.06 9356.89 108 9367.71C131.2 9372.64 148.27 9380.75 148.27 9396C148.27 9412.63 132.3 9422.17 108 9431.46C58.16 9450.52 35.64 9464.4 0 9452.7C-18.36 9446.67 0 9424.35 0 9396C0 9380.25 -12.19 9367.69 0 9364.5" stroke="rgba(62, 103, 172, 0.5)" stroke-width="2"></path><path d="M92.35 9612C92.35 9602.68 97.74 9592.36 108 9592.36C128.06 9592.36 153 9603.14 153 9612C153 9620.57 128.78 9627.21 108 9627.21C98.45 9627.21 92.35 9620.1 92.35 9612" stroke="rgba(62, 103, 172, 0.5)" stroke-width="2"></path><path d="M0 9823.4C0.95 9823.4 3.43 9825.64 3.43 9828C3.43 9830.64 0.93 9833.4 0 9833.4C-0.79 9833.4 0 9830.7 0 9828C0 9825.7 -0.76 9823.4 0 9823.4" stroke="rgba(62, 103, 172, 0.5)" stroke-width="2"></path><path d="M97.71 9936C97.71 9931.56 102.98 9929.35 108 9929.35C112.53 9929.35 116.82 9931.73 116.82 9936C116.82 9943.06 112.68 9952 108 9952C103.13 9952 97.71 9942.89 97.71 9936" stroke="rgba(62, 103, 172, 0.5)" stroke-width="2"></path><path d="M409.33 9936C413.12 9919.73 425.55 9909.77 432 9909.77C436.88 9909.77 432 9922.89 432 9936C432 9990 444.12 10002.12 432 10044C428.49 10056.12 403.28 10056.09 400.74 10044C391.94 10002.09 397.49 9986.84 409.33 9936" stroke="rgba(62, 103, 172, 0.5)" stroke-width="2"></path></g><defs><mask id="SvgjsMask1013"><rect width="430" height="10000" fill="#ffffff"></rect></mask></defs></svg>